<svg width="63" height="43" viewBox="0 0 63 43" fill="none" xmlns="http://www.w3.org/2000/svg">
<g clip-path="url(#clip0_1_212)">
<path fill-rule="evenodd" clip-rule="evenodd" d="M26.4566 4.71178C28.4416 2.69945 31.2072 1.45007 34.2643 1.45007C38.3285 1.45007 41.8751 3.65561 43.7632 6.92981C44.1842 6.74684 44.6146 6.58584 45.0528 6.44681C45.4914 6.30778 45.9365 6.19148 46.3876 6.09829C46.8386 6.00509 47.2942 5.93501 47.7527 5.88842C48.2111 5.84182 48.6718 5.81871 49.1325 5.81909C56.4632 5.81909 62.4049 11.6523 62.4049 18.8489C62.4049 26.0454 56.4632 31.8786 49.1325 31.8786C48.2364 31.8786 47.3623 31.7915 46.5171 31.6256C44.8547 34.5107 41.6844 36.4609 38.0475 36.4609C36.5252 36.4609 35.0846 36.12 33.8032 35.5101C32.117 39.3696 28.1891 42.0744 23.6124 42.0744C18.8462 42.0744 14.7828 39.1389 13.2239 35.0233C13.0504 35.0589 12.876 35.09 12.7009 35.1169C12.5258 35.1438 12.3499 35.1661 12.1736 35.1839C11.9974 35.2017 11.8203 35.2153 11.6432 35.2241C11.4662 35.2332 11.2891 35.2377 11.1117 35.2373C5.43568 35.2381 0.834497 30.7141 0.834497 25.1336C0.832551 24.2528 0.948515 23.3759 1.17966 22.5246C1.41081 21.6734 1.7552 20.8551 2.20388 20.0903C2.65295 19.3258 3.20241 18.6216 3.83865 17.9954C4.4749 17.3692 5.19247 16.8267 5.97308 16.3812C5.81081 16.0179 5.668 15.6466 5.54542 15.2689C5.42245 14.8913 5.31933 14.5079 5.23683 14.12C5.15433 13.732 5.09246 13.34 5.05121 12.946C5.00996 12.552 4.98934 12.1557 4.99012 11.7599C4.99012 5.34101 10.3439 0.138193 16.9484 0.138193C17.8652 0.137057 18.7793 0.238961 19.6724 0.441255C20.565 0.643928 21.4313 0.945853 22.2531 1.34135C23.075 1.73647 23.8474 2.22288 24.5549 2.78999C25.2627 3.35747 25.9005 4.00223 26.4566 4.71178Z" fill="#00A1E0"/>
<path fill-rule="evenodd" clip-rule="evenodd" d="M9.75266 21.8859L10.0017 21.2131C10.0414 21.0979 10.1309 21.1358 10.1675 21.1574C10.2367 21.1972 10.2866 21.2335 10.3761 21.2843C11.11 21.7359 11.7902 21.7404 12.0023 21.7404C12.5517 21.7404 12.8926 21.4574 12.8926 21.0756V21.0559C12.8926 20.6403 12.3673 20.4831 11.7606 20.3024L11.626 20.2603C10.7928 20.0296 9.90209 19.6962 9.90209 18.67V18.6492C9.90209 17.6752 10.7096 16.996 11.8649 16.996L11.9918 16.9944C12.6704 16.9944 13.3261 17.1865 13.8017 17.4668C13.8448 17.4934 13.8865 17.5415 13.8624 17.6059L13.6063 18.2787C13.5612 18.3935 13.4382 18.3173 13.4382 18.3173C13.3145 18.2548 13.1876 18.1991 13.0572 18.1506C12.9273 18.1021 12.7946 18.0612 12.6595 18.0275C12.5249 17.9938 12.3879 17.9677 12.2502 17.9491C12.112 17.9309 11.9731 17.9199 11.8342 17.9173C11.3438 17.9173 11.0286 18.1699 11.0286 18.5135V18.5351C11.0286 18.9356 11.5688 19.1064 12.1949 19.3049L12.3027 19.3379C13.1331 19.5932 14.0192 19.947 14.0192 20.9202V20.9403C14.0192 21.9923 13.2339 22.6454 11.9715 22.6454C11.3512 22.6454 10.7578 22.5522 10.1305 22.2279C10.0118 22.1613 9.89469 22.1037 9.77873 22.0215C9.76667 22.0044 9.71374 21.9844 9.75188 21.8859H9.75266ZM28.4913 21.2131C28.5279 21.1028 28.6337 21.1437 28.6563 21.1574C28.7252 21.1987 28.7761 21.2335 28.8652 21.2843C29.6003 21.7359 30.2794 21.7404 30.4934 21.7404C31.0409 21.7404 31.3822 21.4574 31.3822 21.0756V21.0559C31.3822 20.6403 30.8576 20.4831 30.251 20.3024L30.1163 20.2603C29.282 20.0296 28.3913 19.6962 28.3913 18.67V18.6492C28.3913 17.6752 29.1991 16.996 30.3549 16.996L30.4806 16.9944C31.1592 16.9944 31.8161 17.1865 32.292 17.4668C32.3336 17.4934 32.3761 17.5415 32.3527 17.6059C32.329 17.6654 32.1188 18.2158 32.0967 18.2787C32.0503 18.3935 31.9285 18.3173 31.9285 18.3173C31.8048 18.2548 31.6776 18.1991 31.5476 18.1506C31.4176 18.1021 31.2845 18.0612 31.1499 18.0275C31.0148 17.9938 30.8779 17.9677 30.7401 17.9491C30.602 17.9309 30.463 17.9199 30.3237 17.9173C29.8334 17.9173 29.5182 18.1699 29.5182 18.5135V18.5351C29.5182 18.9356 30.0576 19.1064 30.6845 19.3049L30.7923 19.3379C31.6227 19.5932 32.508 19.947 32.508 20.9202V20.9403C32.508 21.9923 31.7239 22.6454 30.4611 22.6454C29.84 22.6454 29.247 22.5522 28.6201 22.2279C28.5014 22.1613 28.3843 22.1037 28.2679 22.0215C28.2558 22.0044 28.2025 21.9844 28.2415 21.8859L28.4913 21.2131ZM41.9181 18.7219C42.0217 19.0598 42.073 19.4314 42.073 19.8239C42.073 20.2171 42.0217 20.5872 41.9181 20.9255C41.8944 21.0066 41.8664 21.0865 41.8345 21.165C41.8022 21.2434 41.7664 21.3203 41.7259 21.3953C41.6858 21.4699 41.6419 21.543 41.594 21.6135C41.5461 21.684 41.4948 21.7518 41.4399 21.8173C41.385 21.8806 41.3263 21.9408 41.2644 21.998C41.2021 22.0548 41.1371 22.1086 41.069 22.1586C41.0006 22.2083 40.9297 22.2545 40.8562 22.2965C40.7826 22.3389 40.7071 22.3768 40.6293 22.4109C40.3059 22.5549 39.9261 22.6272 39.4993 22.6272C39.0724 22.6272 38.691 22.5549 38.3692 22.4109C38.2914 22.3768 38.2155 22.3389 38.1419 22.2965C38.0688 22.2545 37.9976 22.2083 37.9295 22.1586C37.8614 22.1086 37.796 22.0548 37.7341 21.998C37.6722 21.9408 37.6135 21.8806 37.5586 21.8173C37.5037 21.7518 37.452 21.684 37.4045 21.6135C37.3567 21.543 37.3127 21.4703 37.2722 21.3953C37.2321 21.3207 37.1959 21.2438 37.1636 21.1653C37.1317 21.0873 37.1037 21.0074 37.0796 20.9259C37.0531 20.8365 37.0302 20.7464 37.0103 20.6554C36.9909 20.5641 36.9745 20.4725 36.9613 20.3804C36.9484 20.2884 36.9391 20.1955 36.9329 20.1027C36.9267 20.0099 36.9239 19.9171 36.9247 19.8239C36.9247 19.4307 36.9769 19.0598 37.0796 18.7219C37.1835 18.381 37.3442 18.0809 37.5578 17.8305C37.6131 17.7669 37.6719 17.7063 37.7337 17.6491C37.796 17.5915 37.861 17.5377 37.9295 17.4873C37.9976 17.4369 38.0684 17.3903 38.1419 17.3475C38.2155 17.3051 38.2914 17.2661 38.3692 17.2316C38.6918 17.085 39.0708 17.0107 39.4993 17.0107C39.9273 17.0107 40.3067 17.085 40.6293 17.2316C40.9511 17.3778 41.2243 17.579 41.4399 17.8305C41.6539 18.0809 41.8158 18.381 41.9181 18.7219ZM40.5266 18.4347C40.3044 18.1097 39.9678 17.9525 39.4993 17.9525C39.0303 17.9525 38.6965 18.1097 38.477 18.4347C38.2567 18.7624 38.1443 19.2295 38.1443 19.8239C38.1443 20.4175 38.2567 20.888 38.4782 21.2184C38.6965 21.5472 39.0303 21.7063 39.4993 21.7063C39.9678 21.7063 40.3044 21.5464 40.5266 21.2184C40.7503 20.888 40.8647 20.4175 40.8647 19.8239C40.8647 19.2295 40.7515 18.7624 40.5266 18.4347ZM50.5761 21.5472L50.8349 22.2431C50.8684 22.3283 50.7925 22.3655 50.7925 22.3655C50.3932 22.5162 49.8391 22.6238 49.2997 22.6238C48.3853 22.6238 47.6848 22.3677 47.2174 21.8616C46.7528 21.357 46.5158 20.671 46.5158 19.8201C46.5158 19.4261 46.5746 19.0534 46.689 18.7158C46.8034 18.3753 46.975 18.0749 47.2015 17.8248C47.2599 17.7608 47.3217 17.6998 47.3871 17.6422C47.4525 17.5847 47.521 17.5305 47.5922 17.4801C47.6638 17.4301 47.7377 17.3835 47.8144 17.3411C47.8907 17.2983 47.9697 17.26 48.0506 17.2259C48.3872 17.0797 48.783 17.0062 49.225 17.0062C49.5231 17.0062 49.7885 17.024 50.0161 17.057C50.259 17.0933 50.5831 17.1786 50.7197 17.2305C50.7446 17.2395 50.8139 17.2725 50.7859 17.3517C50.6862 17.6248 50.6181 17.8032 50.5259 18.0521C50.4854 18.1582 50.4033 18.123 50.4033 18.123C50.0566 18.0169 49.7239 17.9684 49.2896 17.9684C48.7678 17.9684 48.3755 18.1374 48.1199 18.4681C47.8611 18.8018 47.7163 19.2386 47.7144 19.8201C47.7124 20.4577 47.8766 20.9301 48.1677 21.2222C48.458 21.5139 48.8631 21.6612 49.3737 21.6612C49.5803 21.6612 49.7756 21.648 49.9515 21.6214C50.1251 21.5945 50.2881 21.5419 50.4415 21.4836C50.4415 21.4836 50.5407 21.4476 50.5761 21.5472ZM56.0758 20.0239C56.0669 20.113 55.9727 20.1141 55.9727 20.1141L52.4047 20.1114C52.4269 20.6391 52.5568 21.0127 52.8195 21.2661C53.0771 21.5146 53.4865 21.6737 54.041 21.6745C54.8878 21.6764 55.2497 21.5104 55.5061 21.418C55.5061 21.418 55.6038 21.3839 55.6408 21.4782L55.8731 22.1147C55.9202 22.2215 55.8824 22.259 55.8427 22.2806C55.6194 22.4003 55.0773 22.6246 54.0457 22.6272C53.5452 22.6291 53.1094 22.5594 52.7506 22.4238C52.6658 22.3935 52.5825 22.3579 52.502 22.3181C52.4214 22.2783 52.3428 22.234 52.2673 22.1851C52.1918 22.1367 52.1194 22.0836 52.0502 22.0268C51.9809 21.97 51.9151 21.9094 51.8529 21.8453C51.7937 21.7824 51.7381 21.7162 51.6863 21.6472C51.6346 21.5783 51.5867 21.5067 51.5431 21.4324C51.4995 21.3582 51.4606 21.2816 51.4256 21.2032C51.391 21.1248 51.3606 21.0445 51.3353 20.9627C51.3077 20.8729 51.2836 20.7823 51.2629 20.6907C51.2423 20.5994 51.2252 20.5069 51.212 20.4141C51.1983 20.3217 51.1886 20.2285 51.1824 20.1349C51.1762 20.0414 51.1734 19.9478 51.1742 19.8542C51.1742 19.461 51.226 19.0875 51.3307 18.7461C51.4349 18.4022 51.5972 18.0987 51.8132 17.8438C51.8692 17.779 51.9284 17.7173 51.9914 17.6589C52.0541 17.6006 52.1202 17.5456 52.1895 17.4945C52.2584 17.443 52.3303 17.3956 52.4051 17.3524C52.4794 17.3089 52.5564 17.2695 52.6354 17.2342C52.9627 17.0842 53.3682 17.0107 53.8137 17.0107C54.1959 17.0107 54.5445 17.0907 54.8348 17.2127C55.0582 17.3058 55.2831 17.474 55.5135 17.7154C55.659 17.8673 55.8805 18.2003 55.97 18.5283C56.1996 19.311 56.0797 19.9864 56.0758 20.0239ZM54.9668 19.2538C54.9403 18.9356 54.8765 18.6495 54.7298 18.4347C54.506 18.1097 54.1978 17.9309 53.7297 17.9309C53.2612 17.9309 52.9285 18.1097 52.7082 18.4347C52.5642 18.6495 52.4712 18.9234 52.4206 19.2538H54.9668ZM27.4955 20.0239C27.4861 20.113 27.392 20.1141 27.392 20.1141L23.8228 20.1114C23.8457 20.6391 23.9749 21.0127 24.2384 21.2661C24.4964 21.5146 24.905 21.6737 25.4591 21.6745C26.3063 21.6764 26.6693 21.5104 26.925 21.418C26.925 21.418 27.0227 21.3839 27.0592 21.4782L27.2923 22.1147C27.3394 22.2215 27.3017 22.259 27.2624 22.2806C27.0375 22.4003 26.495 22.6246 25.4646 22.6272C24.9637 22.6291 24.5279 22.5594 24.1695 22.4238C24.0847 22.3935 24.0018 22.3579 23.9208 22.3181C23.8403 22.278 23.7617 22.2336 23.6862 22.1851C23.6107 22.1363 23.5379 22.0836 23.4687 22.0268C23.3994 21.97 23.3336 21.9094 23.2714 21.8453C23.2122 21.7824 23.1566 21.7162 23.1052 21.6472C23.0534 21.5783 23.006 21.5063 22.9624 21.432C22.9188 21.3582 22.8799 21.2816 22.8453 21.2032C22.8106 21.1248 22.7803 21.0445 22.755 20.9627C22.727 20.8729 22.7028 20.7823 22.6822 20.6907C22.6616 20.5994 22.6441 20.5069 22.6308 20.4145C22.6172 20.3217 22.6071 20.2285 22.6009 20.1349C22.5943 20.0414 22.5915 19.9478 22.5927 19.8542C22.5927 19.461 22.6452 19.0875 22.7487 18.7461C22.7729 18.6639 22.8013 18.5832 22.834 18.5037C22.8667 18.4245 22.9032 18.3469 22.9437 18.2711C22.9842 18.1953 23.0289 18.1218 23.0768 18.0502C23.125 17.979 23.1772 17.9101 23.2324 17.8438C23.2881 17.779 23.3476 17.7173 23.4103 17.6589C23.4733 17.6006 23.5391 17.5456 23.6084 17.4945C23.6772 17.4434 23.7492 17.396 23.8236 17.3524C23.8983 17.3089 23.9749 17.2695 24.0539 17.2342C24.3824 17.0842 24.7878 17.0107 25.2322 17.0107C25.3198 17.0107 25.4073 17.0149 25.4945 17.0232C25.5817 17.0316 25.6681 17.0445 25.7541 17.0611C25.8397 17.0782 25.9245 17.0994 26.0082 17.1248C26.0918 17.1498 26.174 17.1793 26.2545 17.2127C26.4779 17.3058 26.7028 17.474 26.9324 17.7154C27.0779 17.8673 27.2997 18.2003 27.3885 18.5283C27.6173 19.311 27.4994 19.9864 27.4955 20.0239ZM26.3856 19.2538C26.3588 18.9356 26.295 18.6495 26.1487 18.4347C25.9265 18.1097 25.6167 17.9309 25.149 17.9309C24.68 17.9309 24.3469 18.1097 24.1279 18.4347C23.9823 18.6495 23.8901 18.9234 23.8383 19.2538H26.3856ZM18.1343 19.1557V19.0087C18.1343 18.5454 18.0351 18.3272 17.8405 18.1813C17.6413 18.0332 17.3436 17.9563 16.9584 17.9563C16.9584 17.9563 16.0898 17.9461 15.403 18.309C15.3714 18.3272 15.345 18.3378 15.345 18.3378C15.345 18.3378 15.259 18.3673 15.2279 18.2813L14.9753 17.621C14.9364 17.5259 15.0068 17.4828 15.0068 17.4828C15.3282 17.2388 16.1065 17.0914 16.1065 17.0914C16.1855 17.0782 16.2649 17.066 16.3443 17.0558C16.4237 17.0456 16.5034 17.0365 16.5832 17.0293C16.663 17.0225 16.7432 17.0168 16.8233 17.0126C16.9031 17.0088 16.9833 17.0066 17.0634 17.0058C17.7759 17.0058 18.3273 17.1668 18.7025 17.4858C19.0784 17.8063 19.2695 18.3226 19.2695 19.0185L19.2714 22.1954C19.2714 22.1954 19.2788 22.287 19.1893 22.3079C19.1893 22.3079 19.0581 22.3435 18.9402 22.3704C18.8212 22.3969 18.3916 22.4821 18.0405 22.5401C17.951 22.5545 17.8612 22.5674 17.7713 22.5784C17.681 22.5894 17.5907 22.5984 17.5004 22.6056C17.4098 22.6132 17.3195 22.6185 17.2288 22.6223C17.1381 22.6257 17.0471 22.6276 16.9564 22.6276C16.6097 22.6276 16.2918 22.5962 16.0116 22.534C15.9466 22.5208 15.8824 22.5045 15.819 22.4848C15.7555 22.4651 15.6933 22.4424 15.6326 22.4166C15.5715 22.3908 15.5119 22.3621 15.4539 22.3306C15.396 22.2992 15.3395 22.2647 15.2851 22.2272C15.2356 22.1923 15.1885 22.1545 15.1438 22.1139C15.099 22.073 15.057 22.0298 15.0181 21.984C14.9788 21.9381 14.9426 21.89 14.9095 21.84C14.8765 21.79 14.8469 21.7377 14.8204 21.6843C14.7107 21.4661 14.6554 21.1994 14.6554 20.8914C14.6554 20.5891 14.7208 20.3198 14.8469 20.0906C14.9734 19.8626 15.1469 19.6693 15.3652 19.5178C15.4213 19.4796 15.4792 19.4432 15.5388 19.4099C15.5983 19.3765 15.6594 19.3455 15.7217 19.3174C15.7843 19.2894 15.8477 19.2636 15.9123 19.2413C15.9769 19.2185 16.0427 19.1988 16.1093 19.1818C16.3875 19.1098 16.6832 19.0723 16.9887 19.0723C17.2129 19.0723 17.4 19.0769 17.5456 19.0882C17.5456 19.0882 17.8273 19.1125 18.1343 19.1557ZM17.172 21.7305C17.6822 21.7006 18.1347 21.6063 18.1347 21.6063V20.027C18.1347 20.027 17.6783 19.9542 17.1658 19.947C16.4392 19.9387 16.1295 20.1986 16.1314 20.1982C15.9174 20.3463 15.8131 20.5657 15.8131 20.8699C15.8131 21.0642 15.8489 21.2165 15.9209 21.3226C15.966 21.3926 15.9855 21.4188 16.1256 21.5283C16.1236 21.5275 16.4455 21.7741 17.172 21.7305ZM46.0605 18.0271C46.0376 18.0874 45.9998 18.1287 45.9306 18.1215C45.9306 18.1215 45.7259 18.0756 45.5387 18.0756C45.4103 18.0756 45.2262 18.0915 45.0604 18.1412C45.0192 18.1537 44.9787 18.1684 44.9394 18.1855C44.8997 18.2025 44.8612 18.2222 44.8242 18.2438C44.7873 18.2654 44.7515 18.2893 44.7176 18.3154C44.6834 18.3412 44.6507 18.3688 44.6203 18.3988C44.4896 18.5211 44.3837 18.6935 44.3071 18.9098C44.2289 19.1272 44.1888 19.4735 44.1888 19.8205V22.4075C44.1888 22.4215 44.1861 22.4352 44.1806 22.448C44.1752 22.4605 44.1674 22.4723 44.1573 22.4821C44.1471 22.492 44.1355 22.4996 44.1222 22.5049C44.109 22.5102 44.095 22.5132 44.081 22.5132H43.1443C43.1299 22.5132 43.1155 22.5106 43.1023 22.5056C43.0891 22.5003 43.077 22.4928 43.0665 22.4829C43.0564 22.4731 43.0482 22.4617 43.0428 22.4488C43.0369 22.4359 43.0338 22.4223 43.0338 22.4083V17.2286C43.0338 17.1702 43.0774 17.1236 43.1373 17.1236H44.0514C44.1117 17.1236 44.1549 17.1702 44.1549 17.2286V17.6517C44.2915 17.4737 44.5367 17.3161 44.7585 17.2191C44.9807 17.121 45.2289 17.049 45.678 17.0751C45.9119 17.0888 46.2154 17.1513 46.2769 17.174C46.2886 17.1786 46.2995 17.1858 46.3088 17.1945C46.3181 17.2032 46.3251 17.2138 46.3302 17.2255C46.3353 17.2369 46.3376 17.2494 46.3376 17.2619C46.3376 17.2744 46.3349 17.2869 46.3298 17.2986C46.2964 17.3937 46.1232 17.8692 46.0605 18.0271ZM37.5948 15.0189L37.3209 15.7481C37.2979 15.8034 37.2831 15.836 37.1668 15.8019C37.1282 15.7902 37.0893 15.7799 37.05 15.7708C37.0107 15.7621 36.971 15.7545 36.9313 15.7485C36.8916 15.7424 36.8516 15.7379 36.8115 15.7348C36.771 15.7318 36.7309 15.7299 36.6904 15.7299C36.5492 15.7299 36.4212 15.7477 36.3079 15.7841C36.2799 15.7932 36.2523 15.8034 36.2254 15.8155C36.1986 15.8277 36.1725 15.8413 36.1472 15.8564C36.1223 15.8712 36.0978 15.8879 36.0748 15.9061C36.0519 15.9239 36.0297 15.9432 36.0091 15.9637C35.9814 15.9898 35.9554 16.0171 35.9308 16.0459C35.9063 16.0747 35.8838 16.1046 35.8627 16.1356C35.8417 16.1667 35.8223 16.1993 35.8052 16.2322C35.7876 16.2656 35.7721 16.2997 35.7585 16.3345C35.6273 16.7016 35.5767 17.0929 35.5701 17.1176H36.7107C36.8072 17.1176 36.8372 17.1611 36.8278 17.2297L36.6947 17.9517C36.6729 18.0567 36.5753 18.0529 36.5753 18.0529H35.3997L34.5965 22.4795C34.579 22.5787 34.5595 22.6776 34.5377 22.7761C34.5159 22.8742 34.4922 22.9723 34.4657 23.0697C34.4397 23.1671 34.4113 23.2637 34.3809 23.3599C34.3502 23.4557 34.3175 23.5512 34.2825 23.6459C34.1568 23.9664 34.0268 24.2005 33.8178 24.4236C33.7735 24.4736 33.726 24.5206 33.6758 24.5646C33.6256 24.6085 33.5723 24.6494 33.517 24.6873C33.4614 24.7248 33.4034 24.7593 33.3435 24.7896C33.2839 24.8203 33.222 24.8475 33.1586 24.8707C32.9115 24.9593 32.6111 25.0044 32.2831 25.0044C32.127 25.0044 31.9585 25.001 31.76 24.9551C31.7324 24.9491 31.7048 24.9426 31.6772 24.9354C31.6499 24.9286 31.6227 24.921 31.5954 24.9135C31.5682 24.9059 31.541 24.8975 31.5141 24.8888C31.4869 24.8805 31.46 24.8714 31.4336 24.8623C31.3896 24.8472 31.3538 24.7926 31.3795 24.7233C31.404 24.6543 31.6153 24.0914 31.6437 24.0175C31.6799 23.9285 31.7729 23.9626 31.7729 23.9626C31.8359 23.9887 31.8807 24.0058 31.9647 24.0221C32.0503 24.0384 32.1648 24.0528 32.2515 24.0528C32.4072 24.0528 32.5484 24.0346 32.6718 23.994C32.8201 23.9474 32.9076 23.863 32.9975 23.7501C33.0921 23.6315 33.1687 23.4709 33.2473 23.2553C33.3263 23.0371 33.3983 22.7488 33.4602 22.3996L34.2603 18.0533H33.4723C33.3781 18.0533 33.3458 18.0101 33.3567 17.9408L33.4886 17.2187C33.5096 17.1138 33.6096 17.1176 33.6096 17.1176H34.4186L34.4622 16.8831C34.5836 16.186 34.8237 15.6557 35.1794 15.3079C35.537 14.9575 36.0453 14.7806 36.6904 14.7806C36.8749 14.7806 37.0379 14.7923 37.1761 14.8166C37.3115 14.8412 37.4142 14.8643 37.529 14.8984C37.5539 14.9082 37.6217 14.9404 37.5948 15.0189ZM21.4837 22.5132H20.5377C20.477 22.5132 20.4357 22.4659 20.4357 22.4083V14.9954C20.4357 14.9382 20.4777 14.8912 20.5369 14.8912H21.4837C21.5444 14.8912 21.586 14.9382 21.586 14.9961V22.4075C21.586 22.4666 21.5444 22.5132 21.4837 22.5132Z" fill="white"/>
</g>
<defs>
<clipPath id="clip0_1_212">
<rect width="61.6008" height="41.9362" fill="white" transform="translate(0.834473 0.138214)"/>
</clipPath>
</defs>
</svg>
