<svg width="58" height="57" viewBox="0 0 58 57" fill="none" xmlns="http://www.w3.org/2000/svg">
<g clip-path="url(#clip0_1_182)">
<path d="M43.6517 13.7603L30.1042 12.2863L13.5461 13.7603L12.0405 28.5L13.5458 43.2398L28.5987 45.0823L43.6517 43.2398L45.1569 28.1318L43.6517 13.7603Z" fill="white"/>
<path d="M19.7216 36.6289C18.5965 35.8845 17.8174 34.7976 17.3921 33.3604L20.0039 32.3065C20.241 33.1909 20.6548 33.8762 21.2457 34.3627C21.8329 34.8491 22.5479 35.0886 23.3833 35.0886C24.2376 35.0886 24.9715 34.8343 25.5847 34.3257C26.1979 33.8171 26.5068 33.1685 26.5068 32.3838C26.5068 31.5806 26.183 30.9244 25.5358 30.4162C24.8885 29.9079 24.0757 29.6533 23.1047 29.6533H21.5958V27.1219H22.9503C23.7857 27.1219 24.4896 26.9009 25.0616 26.4587C25.6336 26.0165 25.9196 25.4122 25.9196 24.642C25.9196 23.9567 25.6636 23.4112 25.152 23.0023C24.6403 22.5934 23.9928 22.387 23.2063 22.387C22.4386 22.387 21.8289 22.5861 21.3773 22.9877C20.9257 23.3893 20.5982 23.8831 20.3914 24.4653L17.8062 23.4115C18.1486 22.4607 18.7772 21.6205 19.699 20.8946C20.6211 20.1687 21.7988 19.8038 23.2289 19.8038C24.2862 19.8038 25.2383 20.0029 26.0815 20.4045C26.9243 20.8061 27.5867 21.3626 28.0646 22.07C28.5425 22.7811 28.7796 23.5773 28.7796 24.4614C28.7796 25.3643 28.5577 26.1269 28.1135 26.7533C27.6694 27.3798 27.1237 27.8587 26.4764 28.1942V28.3452C27.3307 28.6952 28.0269 29.2296 28.5763 29.9482C29.122 30.6668 29.3965 31.5254 29.3965 32.5278C29.3965 33.5301 29.1368 34.4254 28.6175 35.2104C28.0981 35.9954 27.3794 36.6143 26.4687 37.0638C25.5544 37.5133 24.527 37.7418 23.3867 37.7418C22.066 37.7454 20.8467 37.3732 19.7216 36.6289Z" fill="#1A73E8"/>
<path d="M35.7492 23.9382L32.8966 25.9686L31.4629 23.8388L36.6072 20.2054H38.5792V37.3438H35.7492V23.9382Z" fill="#1A73E8"/>
<path d="M43.6521 56.5053L57.1995 43.2397L50.4258 40.2919L43.6521 43.2397L40.6416 49.8725L43.6521 56.5053Z" fill="#EA4335"/>
<path d="M10.5356 49.8725L13.5461 56.5053H43.6517V43.2398H13.5461L10.5356 49.8725Z" fill="#34A853"/>
<path d="M4.51425 0.494682C2.01944 0.494682 -0.00146484 2.47354 -0.00146484 4.91645V43.2395L6.77226 46.1874L13.546 43.2395V13.7603H43.6516L46.6621 7.12747L43.6519 0.494682H4.51425Z" fill="#4285F4"/>
<path d="M-0.00146484 43.2398V52.0836C-0.00146484 54.5268 2.01944 56.5053 4.51425 56.5053H13.546V43.2398H-0.00146484Z" fill="#188038"/>
<path d="M43.6519 13.7603V43.2396H57.1993V13.7603L50.4256 10.8125L43.6519 13.7603Z" fill="#FBBC04"/>
<path d="M57.1993 13.7602V4.91639C57.1993 2.4732 55.1784 0.494625 52.6836 0.494625H43.6519V13.7602H57.1993Z" fill="#1967D2"/>
</g>
<defs>
<clipPath id="clip0_1_182">
<rect width="57.2008" height="56.0106" fill="white" transform="translate(-0.00146484 0.494682)"/>
</clipPath>
</defs>
</svg>
