<svg width="171" height="155" viewBox="0 0 171 155" fill="none" xmlns="http://www.w3.org/2000/svg">
<g filter="url(#filter0_d_1_217)">
<rect x="23.4282" y="1.0125" width="124.082" height="124.802" rx="12.265" fill="white"/>
</g>
<path d="M114.991 55.626C114.991 66.6889 104.891 74.2551 90.4491 74.2551C83.5834 74.2551 77.925 72.2557 75.8066 69.7572L75.9068 72.3265V88.1707H61.1641V47.2032C61.1641 46.6333 60.9636 46.4885 60.0524 46.4885H55V37.7824H67.3236C72.9774 37.7824 74.3943 41.2081 74.7952 42.7085C77.0184 40.0684 82.8727 37 91.1552 37C105.397 36.9968 114.991 44.489 114.991 55.626ZM99.9435 55.6968C99.9435 49.7725 94.4901 45.7061 87.6199 45.7061C81.9661 45.7061 75.6016 48.3462 75.6016 55.7708C75.6016 60.6229 79.4376 65.6907 87.4194 65.6907C93.2783 65.6875 99.9435 62.69 99.9435 55.6968Z" fill="#017737"/>
<defs>
<filter id="filter0_d_1_217" x="0.428223" y="-16.7358" width="170.082" height="170.802" filterUnits="userSpaceOnUse" color-interpolation-filters="sRGB">
<feFlood flood-opacity="0" result="BackgroundImageFix"/>
<feColorMatrix in="SourceAlpha" type="matrix" values="0 0 0 0 0 0 0 0 0 0 0 0 0 0 0 0 0 0 127 0" result="hardAlpha"/>
<feOffset dy="5.25169"/>
<feGaussianBlur stdDeviation="11.5"/>
<feComposite in2="hardAlpha" operator="out"/>
<feColorMatrix type="matrix" values="0 0 0 0 0.182811 0 0 0 0 0.155278 0 0 0 0 0.358333 0 0 0 0.17 0"/>
<feBlend mode="normal" in2="BackgroundImageFix" result="effect1_dropShadow_1_217"/>
<feBlend mode="normal" in="SourceGraphic" in2="effect1_dropShadow_1_217" result="shape"/>
</filter>
</defs>
</svg>
