<svg width="58" height="58" viewBox="0 0 58 58" fill="none" xmlns="http://www.w3.org/2000/svg">
<g clip-path="url(#clip0_1_227)">
<path d="M12.6093 36.524C12.6093 39.831 9.95194 42.5038 6.66402 42.5038C3.37611 42.5038 0.71875 39.831 0.71875 36.524C0.71875 33.217 3.37611 30.5443 6.66402 30.5443H12.6093V36.524ZM15.5819 36.524C15.5819 33.217 18.2393 30.5443 21.5272 30.5443C24.8151 30.5443 27.4725 33.217 27.4725 36.524V51.4735C27.4725 54.7805 24.8151 57.4532 21.5272 57.4532C18.2393 57.4532 15.5819 54.7805 15.5819 51.4735V36.524Z" fill="#E01E5A"/>
<path d="M21.5271 12.5143C18.2392 12.5143 15.5818 9.8415 15.5818 6.5345C15.5818 3.2275 18.2392 0.554726 21.5271 0.554726C24.815 0.554726 27.4724 3.2275 27.4724 6.5345V12.5143H21.5271ZM21.5271 15.5495C24.815 15.5495 27.4724 18.2223 27.4724 21.5292C27.4724 24.8362 24.815 27.509 21.5271 27.509H6.61886C3.33094 27.509 0.673584 24.8362 0.673584 21.5292C0.673584 18.2223 3.33094 15.5495 6.61886 15.5495H21.5271Z" fill="#36C5F0"/>
<path d="M45.3534 21.5292C45.3534 18.2223 48.0108 15.5495 51.2987 15.5495C54.5866 15.5495 57.244 18.2223 57.244 21.5292C57.244 24.8362 54.5866 27.509 51.2987 27.509H45.3534V21.5292ZM42.3808 21.5292C42.3808 24.8362 39.7234 27.509 36.4355 27.509C33.1476 27.509 30.4902 24.8362 30.4902 21.5292V6.5345C30.4902 3.2275 33.1476 0.554726 36.4355 0.554726C39.7234 0.554726 42.3808 3.2275 42.3808 6.5345V21.5292Z" fill="#2EB67D"/>
<path d="M36.4355 45.4937C39.7234 45.4937 42.3808 48.1665 42.3808 51.4735C42.3808 54.7805 39.7234 57.4532 36.4355 57.4532C33.1476 57.4532 30.4902 54.7805 30.4902 51.4735V45.4937H36.4355ZM36.4355 42.5038C33.1476 42.5038 30.4902 39.831 30.4902 36.524C30.4902 33.217 33.1476 30.5443 36.4355 30.5443H51.3437C54.6317 30.5443 57.289 33.217 57.289 36.524C57.289 39.831 54.6317 42.5038 51.3437 42.5038H36.4355Z" fill="#ECB22E"/>
</g>
<defs>
<clipPath id="clip0_1_227">
<rect width="57.2008" height="57.5327" fill="white" transform="translate(0.358398 0.282845)"/>
</clipPath>
</defs>
</svg>
