<svg width="58" height="57" viewBox="0 0 58 57" fill="none" xmlns="http://www.w3.org/2000/svg">
<g clip-path="url(#clip0_1_177)">
<path d="M35.9866 28.5123C35.9876 30.5318 35.6155 32.535 34.8884 34.4249C32.9576 35.1368 30.9114 35.5017 28.8483 35.502H28.8242C26.6997 35.4994 24.6642 35.1191 22.7859 34.4258C22.0584 32.5356 21.6859 30.5322 21.6866 28.5123V28.4877C21.6856 26.4685 22.0573 24.4658 22.7837 22.576C24.7143 21.8628 26.7609 21.4978 28.8244 21.4987H28.8485C30.9118 21.4977 32.9582 21.8626 34.8886 22.5758C35.6158 24.4654 35.9879 26.4682 35.9868 28.4875V28.512L35.9866 28.5123ZM57.0398 23.8325H40.3452L52.1494 12.2731C51.2229 10.9987 50.1894 9.80219 49.0596 8.69608V8.69521C47.9299 7.59029 46.7083 6.5792 45.4075 5.67238L33.6025 17.2318V0.884569C32.0324 0.625942 30.4431 0.495531 28.851 0.494682L28.8215 0.494682C27.202 0.495557 25.6158 0.630333 24.07 0.884569V17.2318L12.265 5.67238C10.964 6.57895 9.74296 7.59076 8.61467 8.69718L8.60842 8.70155C7.48061 9.80628 6.44856 11.0009 5.52293 12.2731L17.3289 23.8325H0.634499C0.634499 23.8325 0.236328 26.9028 0.236328 28.4904V28.5096C0.236328 30.0972 0.373744 31.653 0.634499 33.1675H17.3291L5.52315 44.7269C7.38031 47.2789 9.65881 49.51 12.265 51.3285L24.07 39.7682V56.1163C25.6384 56.3737 27.2257 56.5038 28.8159 56.5053H28.8564C30.4466 56.5039 32.0339 56.3738 33.6022 56.1163V39.7682L45.4084 51.3285C46.7089 50.4214 47.9302 49.41 49.0596 48.3048L49.0623 48.3022C50.1905 47.196 51.223 46.0002 52.1494 44.7269L40.3434 33.1675H57.0398C57.2997 31.6556 57.4353 30.1044 57.4371 28.5204V28.4797C57.4353 26.8956 57.2997 25.3444 57.0398 23.8325Z" fill="#FF4A00"/>
</g>
<defs>
<clipPath id="clip0_1_177">
<rect width="57.2008" height="56.0106" fill="white" transform="translate(0.236328 0.494682)"/>
</clipPath>
</defs>
</svg>
