<svg width="70" height="50" viewBox="0 0 70 50" fill="none" xmlns="http://www.w3.org/2000/svg">
<g clip-path="url(#clip0_1_208)">
<path fill-rule="evenodd" clip-rule="evenodd" d="M33.5809 8.48171V29.4817H15.6895L33.5809 8.48171ZM33.5809 0.947124C33.5809 3.25116 32.6385 5.46442 30.9627 7.0941C29.2825 8.72811 27.0066 9.64454 24.6374 9.64454C22.2637 9.64454 19.9878 8.72811 18.312 7.0941C16.6318 5.46442 15.6895 3.25116 15.6895 0.947124H33.5809ZM36.5279 29.4861C36.5279 27.182 37.4703 24.9688 39.1505 23.3348C40.8263 21.7051 43.1022 20.7886 45.4759 20.7886C47.8495 20.7886 50.121 21.7051 51.8012 23.3348C53.477 24.9688 54.4193 27.182 54.4193 29.4861H36.5279ZM36.5279 0.947124H54.4238L36.5279 21.9471V0.947124ZM46.5338 47.4601C46.7649 47.4645 46.9916 47.4472 47.2139 47.4083C47.4361 47.3694 47.6584 47.3132 47.8717 47.231C48.0807 47.1532 48.2851 47.0538 48.4763 46.9371C48.6674 46.816 48.8497 46.682 49.0141 46.5307L50.241 47.8189C49.432 48.6316 48.3074 49.2325 46.556 49.2325C43.5556 49.2325 41.6175 47.2959 41.6175 44.6806C41.6086 44.0797 41.7198 43.4875 41.9465 42.9299C42.1776 42.3722 42.5199 41.8665 42.9555 41.4428C43.3911 41.0149 43.9112 40.682 44.4802 40.4572C45.0536 40.2281 45.667 40.1157 46.2849 40.1287C49.263 40.1287 50.9477 42.329 50.801 45.3852H43.7601C44.009 46.6561 44.9291 47.4645 46.5293 47.4645L46.5338 47.4601ZM48.6719 43.9284C48.4807 42.744 47.7517 41.8708 46.2982 41.8708C44.9469 41.8708 44.0001 42.6186 43.7601 43.9284C43.7601 43.9284 48.6763 43.9284 48.6719 43.9284ZM0.313965 47.3607L5.72806 42.0091H0.442872V40.3319H8.24397V42.0437L2.82543 47.3953H8.31953V49.0725H0.313965L0.313965 47.3607ZM14.4004 47.4601C14.6271 47.4645 14.8538 47.4472 15.076 47.4083C15.3027 47.3694 15.5205 47.3132 15.7339 47.231C15.9473 47.1532 16.1473 47.0538 16.3429 46.9371C16.534 46.816 16.7118 46.682 16.8763 46.5264L18.1076 47.8189C17.2941 48.6316 16.1695 49.2325 14.4182 49.2325C11.4222 49.2325 9.48414 47.2959 9.48414 44.6806C9.4708 44.0797 9.58193 43.4832 9.81307 42.9299C10.0398 42.3722 10.3865 41.8665 10.8221 41.4428C11.2533 41.0149 11.7734 40.682 12.3468 40.4529C12.9157 40.2281 13.5292 40.1157 14.147 40.1287C17.1252 40.1287 18.8143 42.329 18.6632 45.3852H11.6267C11.8756 46.6561 12.7957 47.4645 14.3959 47.4645L14.4004 47.4601ZM16.5429 43.9284C16.3518 42.744 15.6228 41.8708 14.1692 41.8708C12.8179 41.8708 11.8711 42.6143 11.6311 43.9284C11.6311 43.9284 16.5474 43.9284 16.5429 43.9284ZM30.3671 44.6806C30.3671 41.8881 32.5185 40.133 34.8833 40.133C35.1677 40.1287 35.4522 40.1547 35.7278 40.2108C36.0034 40.267 36.2746 40.3535 36.5324 40.4659C36.7902 40.5783 37.0391 40.7166 37.2658 40.8809C37.4925 41.0451 37.697 41.2353 37.8837 41.4428V36.2858H39.7995V49.0509H37.8837V47.8492C37.7014 48.0653 37.497 48.2598 37.2703 48.4328C37.0436 48.6057 36.7991 48.7526 36.5368 48.8737C36.279 48.9904 36.0034 49.0812 35.7234 49.1417C35.4433 49.2022 35.1544 49.2325 34.8655 49.2281C32.5718 49.2281 30.3715 47.4601 30.3715 44.6806H30.3671ZM37.9904 44.6633C37.9592 43.548 37.2436 42.5581 36.1723 42.1518C35.1055 41.7454 33.8876 42.0048 33.0874 42.8045C32.2873 43.6042 32.0562 44.793 32.5051 45.8218C32.9497 46.8463 33.9854 47.5163 35.1366 47.5163C36.7813 47.5163 37.9859 46.2411 37.9904 44.6633ZM52.0501 47.1921C52.0531 47.1921 52.0546 47.1921 52.0546 47.1921L52.0501 47.1964V47.1921ZM53.7837 46.3232C53.8948 46.5221 54.0371 46.7037 54.2015 46.8636C54.366 47.0235 54.5527 47.1619 54.7572 47.2743C54.9572 47.3866 55.175 47.4688 55.4017 47.525C55.6284 47.5812 55.8595 47.6071 56.0951 47.5985C57.1797 47.5985 57.7398 47.0581 57.7398 46.4443C57.7398 45.744 56.6952 45.5884 55.5528 45.3593C54.0237 45.0437 52.4279 44.5552 52.4279 42.757C52.4279 41.3737 53.7837 40.0941 55.9129 40.1114C57.5931 40.1114 58.8422 40.7598 59.5489 41.8059L57.9398 42.6619C57.8287 42.5019 57.6998 42.3593 57.5531 42.2296C57.402 42.1042 57.2375 41.9962 57.0641 41.9097C56.8863 41.8232 56.6996 41.7584 56.5085 41.7152C56.3129 41.6763 56.1173 41.659 55.9173 41.6633C54.8905 41.6633 54.366 42.1561 54.366 42.7137C54.366 43.3449 55.1928 43.5178 56.4952 43.7987C57.9798 44.1143 59.6556 44.5855 59.6556 46.4054C59.6556 47.6114 58.571 49.2368 56.0062 49.2195C54.1304 49.2195 52.8147 48.4846 52.0546 47.1964L53.7837 46.3232ZM64.8519 45.1691L63.3361 46.7771V49.0466H61.4203V36.2814H63.3361V44.6417L67.3989 40.3059H69.7326L66.2077 44.0495L69.8215 49.0509H67.6567L64.8563 45.1691H64.8519ZM24.5751 40.133C24.5722 40.133 24.5707 40.133 24.5707 40.133H24.5751ZM24.5707 40.133C26.8377 40.133 28.7491 41.5682 28.7491 43.9457V49.0552H26.811V44.1835C26.811 42.7483 26.0909 41.8924 24.6418 41.8924C23.1927 41.8924 22.3437 42.7526 22.3437 44.1835V49.0552H20.3923V43.9457C20.3923 41.5682 22.2948 40.133 24.5707 40.133Z" fill="#03363D"/>
</g>
<defs>
<clipPath id="clip0_1_208">
<rect width="69.5209" height="48.2853" fill="white" transform="translate(0.313965 0.941635)"/>
</clipPath>
</defs>
</svg>
