<svg width="58" height="57" viewBox="0 0 58 57" fill="none" xmlns="http://www.w3.org/2000/svg">
<g clip-path="url(#clip0_1_156)">
<path d="M43.1893 19.2048V12.627C44.077 12.2208 44.8287 11.576 45.3567 10.7677C45.8847 9.95943 46.1675 9.02092 46.172 8.06143V7.9105C46.172 5.11295 43.8559 2.84507 40.9991 2.84507H40.8448C37.9878 2.84507 35.6717 5.11295 35.6717 7.9105V8.06143C35.6762 9.02092 35.959 9.95943 36.487 10.7677C37.0151 11.576 37.7667 12.2208 38.6544 12.627V19.2048C36.103 19.5874 33.7002 20.6233 31.6891 22.2077L13.2658 8.15639C13.3972 7.69203 13.4657 7.21451 13.4735 6.73521C13.4757 5.60631 13.136 4.50211 12.4973 3.56229C11.8586 2.62248 10.9495 1.88925 9.88519 1.45538C8.82085 1.0215 7.64901 0.906465 6.51789 1.12482C5.38677 1.34317 4.34719 1.8851 3.53065 2.68206C2.71411 3.47902 2.1573 4.4952 1.93064 5.60207C1.70398 6.70894 1.81767 7.85677 2.25731 8.90037C2.69695 9.94397 3.4428 10.8365 4.40051 11.4649C5.35822 12.0934 6.48477 12.4296 7.63766 12.4311C8.64623 12.4264 9.63591 12.1628 10.5079 11.6664L28.6495 25.4897C25.3142 30.4234 25.4035 36.8534 28.8743 41.6967L23.3565 47.1013C22.9103 46.9617 22.4458 46.8875 21.9775 46.8812C19.335 46.8835 17.1942 48.9819 17.1949 51.5695C17.1956 54.1568 19.3377 56.2541 21.98 56.2548C24.6226 56.2555 26.7656 54.1592 26.7679 51.5717C26.7616 51.1132 26.6858 50.6582 26.5429 50.2216L32.0015 44.8746C36.8788 48.5512 43.5775 48.868 48.794 45.6687C54.0103 42.4692 56.6429 36.4291 55.393 30.5277C54.1431 24.6261 49.2749 20.1095 43.1893 19.2048ZM40.9267 40.8387C39.9183 40.8653 38.9147 40.6937 37.975 40.3342C37.0354 39.9746 36.1789 39.4344 35.4561 38.7454C34.7332 38.0564 34.1586 37.2325 33.7663 36.3224C33.374 35.4124 33.1719 34.4346 33.1719 33.4468C33.1719 32.4589 33.374 31.4811 33.7663 30.5711C34.1586 29.661 34.7332 28.8372 35.4561 28.1481C36.1789 27.4591 37.0354 26.9189 37.975 26.5593C38.9147 26.1998 39.9183 26.0283 40.9267 26.0548C44.9906 26.1942 48.2121 29.4594 48.2144 33.4414C48.2162 37.4229 44.9981 40.6916 40.9343 40.8349" fill="#FF7A59"/>
</g>
<defs>
<clipPath id="clip0_1_156">
<rect width="57.2008" height="56.0106" fill="white" transform="translate(0.236328 0.24469)"/>
</clipPath>
</defs>
</svg>
