<svg width="58" height="53" viewBox="0 0 58 53" fill="none" xmlns="http://www.w3.org/2000/svg">
<g clip-path="url(#clip0_1_160)">
<path d="M40.1344 19.7181H54.9095C56.3054 19.7181 57.437 20.8176 57.437 22.174V35.2508C57.437 40.2356 53.2781 44.2767 48.1479 44.2767H48.1039C42.9737 44.2774 38.8142 40.2369 38.8135 35.252C38.8135 35.2516 38.8135 35.2512 38.8135 35.2507V21.0017C38.8135 20.2928 39.4049 19.7181 40.1344 19.7181Z" fill="#5059C9"/>
<path d="M50.1209 17.1329C53.4269 17.1329 56.107 14.5288 56.107 11.3164C56.107 8.10405 53.4269 5.49992 50.1209 5.49992C46.8148 5.49992 44.1348 8.10405 44.1348 11.3164C44.1348 14.5288 46.8148 17.1329 50.1209 17.1329Z" fill="#5059C9"/>
<path d="M31.4972 17.133C36.2726 17.133 40.1439 13.3715 40.1439 8.73143C40.1439 4.09135 36.2726 0.329826 31.4972 0.329826C26.7218 0.329826 22.8506 4.09135 22.8506 8.73143C22.8506 13.3715 26.7218 17.133 31.4972 17.133Z" fill="#7B83EB"/>
<path d="M43.0266 19.7181H18.6378C17.2585 19.7513 16.1675 20.8635 16.1995 22.2037V37.1185C16.0068 45.1611 22.5553 51.8352 30.8322 52.032C39.1091 51.8352 45.6576 45.1611 45.465 37.1185V22.2037C45.4969 20.8635 44.4059 19.7513 43.0266 19.7181Z" fill="#7B83EB"/>
<path opacity="0.1" d="M32.1624 19.7181V40.6187C32.1558 41.5771 31.5581 42.4382 30.646 42.8031C30.3555 42.9225 30.0434 42.984 29.7281 42.9841H17.3701C17.1971 42.5575 17.0375 42.131 16.9045 41.6915C16.4388 40.2084 16.2012 38.6665 16.1994 37.1159V22.1998C16.1674 20.8618 17.2567 19.7513 18.6338 19.7181H32.1624Z" fill="black"/>
<path opacity="0.2" d="M30.8322 19.7181V41.9113C30.8321 42.2177 30.7688 42.521 30.646 42.8032C30.2704 43.6894 29.3842 44.2703 28.3978 44.2767H17.9953C17.7691 43.8501 17.5563 43.4236 17.3701 42.9841C17.1838 42.5447 17.0375 42.131 16.9045 41.6916C16.4388 40.2084 16.2012 38.6666 16.1994 37.1159V22.1998C16.1674 20.8618 17.2567 19.7513 18.6338 19.7181H30.8322Z" fill="black"/>
<path opacity="0.2" d="M30.8322 19.7181V39.3262C30.822 40.6285 29.7381 41.6817 28.3978 41.6916H16.9045C16.4388 40.2084 16.2012 38.6666 16.1994 37.1159V22.1998C16.1674 20.8618 17.2567 19.7513 18.6338 19.7181H30.8322Z" fill="black"/>
<path opacity="0.2" d="M29.5019 19.7181V39.3262C29.4918 40.6285 28.4078 41.6817 27.0676 41.6916H16.9045C16.4388 40.2084 16.2012 38.6666 16.1994 37.1159V22.1998C16.1674 20.8618 17.2567 19.7513 18.6338 19.7181H29.5019Z" fill="black"/>
<path opacity="0.1" d="M32.1622 13.0356V17.1072C31.936 17.1201 31.7232 17.133 31.497 17.133C31.2709 17.133 31.0581 17.1201 30.8319 17.1072C30.3829 17.0782 29.9376 17.009 29.5017 16.9004C26.8079 16.2805 24.5824 14.4449 23.5155 11.9628C23.332 11.546 23.1894 11.1132 23.0898 10.6703H29.7278C31.0701 10.6752 32.1571 11.7313 32.1622 13.0356Z" fill="black"/>
<path opacity="0.2" d="M30.832 14.3281V17.1071C30.383 17.0781 29.9377 17.0089 29.5018 16.9003C26.808 16.2804 24.5825 14.4448 23.5156 11.9627H28.3976C29.74 11.9677 30.8269 13.0238 30.832 14.3281Z" fill="black"/>
<path opacity="0.2" d="M30.832 14.3281V17.1071C30.383 17.0781 29.9377 17.0089 29.5018 16.9003C26.808 16.2804 24.5825 14.4448 23.5156 11.9627H28.3976C29.74 11.9677 30.8269 13.0238 30.832 14.3281Z" fill="black"/>
<path opacity="0.2" d="M29.5018 14.3281V16.9003C26.808 16.2804 24.5825 14.4448 23.5156 11.9627H27.0674C28.4098 11.9677 29.4966 13.0238 29.5018 14.3281Z" fill="black"/>
<path d="M2.67466 11.9627H27.0635C28.4101 11.9627 29.5018 13.0235 29.5018 14.332V38.0297C29.5018 39.3382 28.4101 40.3989 27.0635 40.3989H2.67466C1.328 40.3989 0.236328 39.3381 0.236328 38.0297V14.332C0.236328 13.0235 1.32802 11.9627 2.67466 11.9627Z" fill="url(#paint0_linear_1_160)"/>
<path d="M21.2864 20.9822H16.411V33.8819H13.3049V20.9822H8.45215V18.4798H21.2864V20.9822Z" fill="white"/>
</g>
<defs>
<linearGradient id="paint0_linear_1_160" x1="5.32034" y1="10.1115" x2="23.6062" y2="42.7055" gradientUnits="userSpaceOnUse">
<stop stop-color="#5A62C3"/>
<stop offset="0.5" stop-color="#4D55BD"/>
<stop offset="1" stop-color="#3940AB"/>
</linearGradient>
<clipPath id="clip0_1_160">
<rect width="57.2008" height="51.7021" fill="white" transform="translate(0.236328 0.329788)"/>
</clipPath>
</defs>
</svg>
